<svg width="24" height="24" viewBox="0 0 24 24" fill="none" xmlns="http://www.w3.org/2000/svg">
<path d="M12.0114 2C12.7954 2.00868 13.5763 2.09565 14.3416 2.25953C14.6756 2.33106 14.9255 2.59847 14.9634 2.92509L15.1452 4.49109C15.2275 5.21012 15.8597 5.75472 16.6135 5.75548C16.8161 5.75578 17.0165 5.71527 17.2037 5.63574L18.6998 5.00468C19.011 4.87344 19.3745 4.94499 19.6068 5.1832C20.688 6.29195 21.4932 7.62171 21.9618 9.07241C22.0629 9.38523 21.9466 9.72518 21.672 9.91951L20.3459 10.8581C19.9676 11.1249 19.7442 11.5487 19.7442 11.9995C19.7442 12.4502 19.9676 12.874 20.3468 13.1415L21.674 14.0803C21.9487 14.2746 22.0651 14.6146 21.964 14.9275C21.4955 16.378 20.6908 17.7076 19.6102 18.8166C19.3781 19.0547 19.0149 19.1265 18.7037 18.9956L17.2015 18.3636C16.7718 18.1831 16.2782 18.2095 15.8721 18.4349C15.466 18.6603 15.1957 19.0577 15.144 19.5054L14.9634 21.0712C14.9262 21.3941 14.6818 21.6597 14.3526 21.7349C12.8054 22.0884 11.1935 22.0884 9.64631 21.7349C9.31718 21.6597 9.07272 21.3941 9.03548 21.0712L8.85515 19.5077C8.80219 19.0609 8.53148 18.6646 8.12567 18.44C7.71986 18.2154 7.22711 18.1891 6.79877 18.3686L5.29627 19.0007C4.98505 19.1316 4.62168 19.0598 4.38962 18.8215C3.30847 17.7113 2.50369 16.3801 2.03584 14.928C1.93507 14.6153 2.0515 14.2755 2.326 14.0814L3.65408 13.1419C4.03236 12.875 4.25577 12.4512 4.25577 12.0005C4.25577 11.5498 4.03236 11.126 3.65358 10.8587L2.32634 9.92089C2.05143 9.72663 1.93489 9.38646 2.03602 9.07344C2.50467 7.62273 3.30988 6.29298 4.39105 5.18423C4.62334 4.94602 4.98689 4.87446 5.29805 5.00571L6.79388 5.63665C7.22429 5.81802 7.7191 5.79062 8.1271 5.56174C8.53335 5.33548 8.8038 4.93767 8.85601 4.4899L9.03768 2.92509C9.07562 2.59831 9.32568 2.33081 9.65995 2.25943C10.4261 2.09582 11.2079 2.00888 12.0114 2ZM12.0116 3.53836C11.5266 3.54384 11.043 3.58403 10.5647 3.65848L10.4484 4.66071C10.3396 5.59352 9.77663 6.42157 8.93319 6.89133C8.08459 7.36737 7.04996 7.42466 6.14974 7.04531L5.19022 6.64059C4.5793 7.35255 4.09305 8.15525 3.75058 9.01713L4.60276 9.61929C5.39193 10.176 5.85801 11.0602 5.85801 12.0005C5.85801 12.9408 5.39193 13.825 4.60359 14.3811L3.75007 14.9849C4.09225 15.8483 4.57857 16.6525 5.18991 17.3658L6.15673 16.9591C7.05195 16.5838 8.07954 16.6387 8.92583 17.1071C9.77212 17.5756 10.3367 18.4018 10.4474 19.3361L10.5638 20.3452C11.5141 20.5003 12.4849 20.5003 13.4352 20.3452L13.5515 19.3361C13.6592 18.4022 14.2231 17.573 15.0704 17.1029C15.9177 16.6327 16.9474 16.5775 17.8442 16.9543L18.8103 17.3608C19.421 16.6485 19.9072 15.8456 20.2496 14.9836L19.3972 14.3807C18.6081 13.8239 18.142 12.9398 18.142 11.9995C18.142 11.0592 18.6081 10.175 19.3962 9.61897L20.2474 9.01653C19.905 8.15449 19.4187 7.35164 18.8076 6.63956L17.8501 7.04347C17.4598 7.20925 17.0377 7.29458 16.6114 7.29394C15.0415 7.29236 13.724 6.1575 13.5527 4.66034L13.4363 3.65816C12.9604 3.5838 12.4819 3.54372 12.0116 3.53836Z" fill="#090D14"/>
<path fill-rule="evenodd" clip-rule="evenodd" d="M12 14.75C13.5188 14.75 14.75 13.5188 14.75 12C14.75 10.4812 13.5188 9.25 12 9.25C10.4812 9.25 9.25 10.4812 9.25 12C9.25 13.5188 10.4812 14.75 12 14.75ZM12 16C14.2091 16 16 14.2091 16 12C16 9.79086 14.2091 8 12 8C9.79086 8 8 9.79086 8 12C8 14.2091 9.79086 16 12 16Z" fill="#DC2626"/>
</svg>
