<svg width="24" height="24" viewBox="0 0 24 24" fill="none" xmlns="http://www.w3.org/2000/svg">
<path fill-rule="evenodd" clip-rule="evenodd" d="M12 23C18.0654 23 23 18.0654 23 12C23 5.93465 18.0654 1 12 1C9.13106 1 6.46585 2.09679 4.4375 4.03279V1.6875C4.4375 1.30754 4.12996 1 3.75 1C3.37004 1 3.0625 1.30754 3.0625 1.6875V5.8125C3.0625 6.19246 3.37004 6.5 3.75 6.5H7.875C8.25496 6.5 8.5625 6.19246 8.5625 5.8125C8.5625 5.43254 8.25496 5.125 7.875 5.125H5.28038C7.06696 3.36935 9.44181 2.375 12 2.375C17.3073 2.375 21.625 6.69273 21.625 12C21.625 17.3073 17.3073 21.625 12 21.625C6.69273 21.625 2.375 17.3073 2.375 12C2.375 11.62 2.06746 11.3125 1.6875 11.3125C1.30754 11.3125 1 11.62 1 12C1 18.0654 5.93465 23 12 23Z" fill="#090D14"/>
<path fill-rule="evenodd" clip-rule="evenodd" d="M18 15.3956V9.58313C18 9.31381 17.8329 9.07292 17.5811 8.97819L12.4144 7.04069C12.2682 6.98644 12.1068 6.98644 11.9604 7.04069L6.79372 8.97819C6.54206 9.07292 6.375 9.31381 6.375 9.58313V15.3956C6.375 15.665 6.54206 15.9059 6.79372 16.0006L11.9604 17.9381C12.0336 17.9652 12.1106 17.979 12.1875 17.979C12.2644 17.979 12.3414 17.9652 12.4146 17.9381L17.5813 16.0006C17.8329 15.9059 18 15.665 18 15.3956ZM12.1875 10.8307L8.85995 9.58313L12.1875 8.33559L15.515 9.58313L12.1875 10.8307ZM11.5417 16.401L7.66667 14.9479V10.5153L11.5417 11.9684V16.401ZM16.7083 10.5153V14.9479L12.8333 16.401V11.9684L16.7083 10.5153Z" fill="#DC2626"/>
</svg>
