<svg width="24" height="24" viewBox="0 0 24 24" fill="none" xmlns="http://www.w3.org/2000/svg">
<path d="M19 19C19 20.1046 18.1046 21 17 21C15.8954 21 15 20.1046 15 19C15 17.8954 15.8954 17 17 17C18.1046 17 19 17.8954 19 19Z" stroke="#090D14" stroke-width="1.5"/>
<path d="M8.99817 19C8.99817 20.1046 8.10274 21 6.99817 21C5.8936 21 4.99817 20.1046 4.99817 19C4.99817 17.8954 5.8936 17 6.99817 17C8.10274 17 8.99817 17.8954 8.99817 19Z" stroke="#090D14" stroke-width="1.5"/>
<path d="M2 11.882V18.983H5M12.2979 5.50001H14.5V12.5H22V18.983L19 19M9 18.9832H15" stroke="#090D14" stroke-width="1.5" stroke-linejoin="round"/>
<path d="M14.5 7.49989L19 7.49988L22 12.4999" stroke="#090D14" stroke-width="1.5"/>
<path d="M8.27112 9.38707C7.88707 9.38707 7.57266 9.23441 7.32788 8.92909C7.08732 8.62377 6.96704 8.17701 6.96704 7.58881C6.96704 6.99164 7.08943 6.54039 7.33421 6.23507C7.57899 5.92974 7.89973 5.77708 8.29644 5.77708C8.46104 5.77708 8.60664 5.80178 8.73325 5.85117C8.85986 5.89607 8.96748 5.95893 9.0561 6.03975C9.14895 6.12057 9.22703 6.21262 9.29033 6.31589H9.32198C9.3051 6.2216 9.28822 6.10037 9.27134 5.9522C9.25868 5.79953 9.25235 5.66708 9.25235 5.55483V5.38645H8.27745V4.73315H9.25235V4.20108H10.1956V4.73315H10.6767V5.38645H10.1956V9.31972H9.47392L9.29033 8.84153H9.25235C9.19326 8.94031 9.1173 9.03236 9.02445 9.11767C8.93582 9.19849 8.83032 9.2636 8.70793 9.31299C8.58554 9.36238 8.43994 9.38707 8.27112 9.38707ZM8.60031 8.5856C8.86197 8.5856 9.04555 8.51152 9.15106 8.36334C9.25657 8.21517 9.31143 7.99067 9.31565 7.68984V7.59555C9.31565 7.27227 9.2629 7.02531 9.15739 6.85469C9.0561 6.67958 8.86619 6.59203 8.58765 6.59203C8.38085 6.59203 8.21837 6.67958 8.1002 6.85469C7.98203 7.02531 7.92295 7.27451 7.92295 7.60228C7.92295 7.93006 7.98203 8.17701 8.1002 8.34314C8.21837 8.50478 8.38507 8.5856 8.60031 8.5856ZM10.0373 10.3839H7.41018V9.92588H10.0373V10.3839Z" fill="#DC2626"/>
<path d="M3.89193 10.3858C3.37276 10.3838 2.92603 10.256 2.55174 10.0025C2.17946 9.74893 1.8927 9.38169 1.69147 8.90075C1.49225 8.4198 1.39365 7.84126 1.39566 7.16513C1.39566 6.491 1.49527 5.91649 1.69449 5.44158C1.89572 4.96668 2.18248 4.60547 2.55475 4.35795C2.92904 4.10843 3.37477 3.98366 3.89193 3.98366C4.4091 3.98366 4.85382 4.10843 5.2261 4.35795C5.60039 4.60748 5.88815 4.9697 6.08938 5.4446C6.29061 5.9175 6.39022 6.491 6.38821 7.16513C6.38821 7.84328 6.28759 8.42282 6.08636 8.90376C5.88714 9.38471 5.60139 9.75195 5.22912 10.0055C4.85684 10.2591 4.41111 10.3858 3.89193 10.3858ZM3.89193 9.3022C4.2461 9.3022 4.52883 9.12411 4.74012 8.76793C4.95142 8.41175 5.05606 7.87749 5.05404 7.16513C5.05404 6.69626 5.00575 6.30587 4.90916 5.99396C4.81458 5.68205 4.67975 5.44762 4.50468 5.29066C4.33162 5.1337 4.12737 5.05522 3.89193 5.05522C3.53978 5.05522 3.25806 5.2313 3.04676 5.58345C2.83547 5.93561 2.72882 6.46283 2.72681 7.16513C2.72681 7.64003 2.7741 8.03646 2.86867 8.3544C2.96527 8.67034 3.1011 8.90779 3.27617 9.06676C3.45124 9.22372 3.65649 9.3022 3.89193 9.3022Z" fill="#DC2626"/>
</svg>
