<svg width="24" height="24" viewBox="0 0 24 24" fill="none" xmlns="http://www.w3.org/2000/svg">
<path d="M4.2192 10.5362C3.12376 12.4141 2.09847 16.7322 6.54928 19.246C6.71133 19.3375 6.81778 19.5088 6.81778 19.6949C6.81778 20.5266 6.81778 21.1311 6.81778 21.5239C6.81778 21.8001 7.04163 22.0235 7.31778 22.0235H9.1976C9.47374 22.0235 9.69759 21.7997 9.69759 21.5235V20.889C9.69759 20.6783 9.88831 20.519 10.0957 20.5564V20.5564C11.3281 20.7793 12.5906 20.7793 13.8231 20.5564V20.5564C14.0304 20.519 14.2211 20.6783 14.2211 20.889V21.5235C14.2211 21.7997 14.445 22.0235 14.7211 22.0235H16.5036C16.7797 22.0235 17.0036 21.7997 17.0036 21.5235V19.4599C17.0036 19.4184 17.0276 19.3807 17.0652 19.3632V19.3632C18.4483 18.7166 19.5603 17.6046 20.2069 16.2214V16.2214C20.2245 16.1839 20.2622 16.1599 20.3036 16.1599H21.2382C21.5144 16.1599 21.7382 15.936 21.7382 15.6599V12.8662C21.7382 12.5901 21.5144 12.3662 21.2382 12.3662H20.5341C20.4915 12.3662 20.4544 12.3372 20.4442 12.2958V12.2958C20.1132 10.9542 19.3169 9.77369 18.1969 8.96435L17.9741 8.80332C17.9469 8.78367 17.9308 8.75216 17.9308 8.71861V6.94202C17.9308 6.56079 17.5212 6.3198 17.1879 6.50494L15.6453 7.3619C15.5167 7.43338 15.3635 7.44391 15.224 7.39701C14.6694 7.21058 13.6693 6.94292 12.8266 6.94292" stroke="black" stroke-width="1.5"/>
<circle cx="7.67639" cy="7.37671" r="5.2937" stroke="#DC2626" stroke-width="1.5"/>
<path d="M17.1542 12.6705C16.6479 12.6705 16.2375 12.2601 16.2375 11.7538C16.2375 11.2476 16.6479 10.8372 17.1542 10.8372C17.6605 10.8372 18.0709 11.2476 18.0709 11.7538C18.0709 12.2601 17.6605 12.6705 17.1542 12.6705Z" fill="black"/>
<path d="M7.16529 9.32029C6.80891 9.32029 6.51714 9.17862 6.28999 8.89529C6.06676 8.61196 5.95514 8.19738 5.95514 7.65155C5.95514 7.09738 6.06871 6.67863 6.29586 6.3953C6.52301 6.11197 6.82066 5.9703 7.18879 5.9703C7.34153 5.9703 7.47665 5.99322 7.59414 6.03905C7.71163 6.08072 7.81149 6.13905 7.89374 6.21405C7.9799 6.28905 8.05235 6.37447 8.1111 6.4703H8.14047C8.1248 6.3828 8.10914 6.2703 8.09347 6.1328C8.08172 5.99114 8.07585 5.86822 8.07585 5.76406V5.60781H7.17117V5.00156H8.07585V4.50781H8.95116V5.00156H9.39762V5.60781H8.95116V9.25779H8.28146L8.1111 8.81404H8.07585C8.02102 8.9057 7.95053 8.99112 7.86437 9.07029C7.78212 9.14529 7.68421 9.2057 7.57064 9.25154C7.45706 9.29737 7.32195 9.32029 7.16529 9.32029ZM7.47077 8.57654C7.71359 8.57654 7.88395 8.50779 7.98186 8.37029C8.07977 8.23279 8.13068 8.02446 8.13459 7.74529V7.6578C8.13459 7.3578 8.08564 7.12863 7.98773 6.9703C7.89374 6.8078 7.7175 6.72655 7.45902 6.72655C7.26712 6.72655 7.11634 6.8078 7.00668 6.9703C6.89702 7.12863 6.8422 7.35988 6.8422 7.66405C6.8422 7.96821 6.89702 8.19738 7.00668 8.35154C7.11634 8.50154 7.27104 8.57654 7.47077 8.57654ZM8.80429 10.2453H6.36636V9.82028H8.80429V10.2453Z" fill="#DC2626"/>
</svg>
